<?xml version="1.0" encoding="utf-8"?>
<!-- Generator: Adobe Illustrator 19.2.1, SVG Export Plug-In . SVG Version: 6.00 Build 0)  -->
<svg version="1.1" id="Layer_1" xmlns="http://www.w3.org/2000/svg" xmlns:xlink="http://www.w3.org/1999/xlink" x="0px" y="0px"
	 viewBox="0 0 18.3 19" style="enable-background:new 0 0 18.3 19;" xml:space="preserve">
<style type="text/css">
	.st0{fill:none;stroke:#0060A1;stroke-width:0.875;}
</style>
<g id="Style-Guide-and-UI-KIT">
	<g id="Page_x2F_All-Assets" transform="translate(-74.000000, -3089.000000)">
		<g id="Navigation---Jump" transform="translate(73.000000, 2944.000000)">
			<g id="BMS-UI-Element_x2F_Button_x2F_Button_x2F_PageNav-closed" transform="translate(1.000000, 145.000000)">
				
					<g id="BMS-UI-Element_x2F_Button_x2F_Button_x2F_Action-no-Text" transform="translate(9.500000, 10.000000) rotate(-90.000000) translate(-9.500000, -10.000000) translate(0.000000, 1.000000)">
					<path id="Combined-Shape" class="st0" d="M11.4,8.9L11.4,8.9c0-0.1,0-0.2,0-0.2L9.2,6.4C9.1,6.3,9,6.3,9,6.4
						C8.9,6.5,8.9,6.6,9,6.6l2.1,2.3L9,11.1c-0.1,0.1-0.1,0.2,0,0.2c0.1,0.1,0.1,0.1,0.2,0L11.3,9C11.3,9,11.4,9,11.4,8.9z"/>
				</g>
			</g>
		</g>
	</g>
</g>
</svg>
