<?xml version="1.0" encoding="utf-8"?>
<!-- Generator: Adobe Illustrator 19.2.1, SVG Export Plug-In . SVG Version: 6.00 Build 0)  -->
<svg version="1.1" id="Layer_1" xmlns="http://www.w3.org/2000/svg" xmlns:xlink="http://www.w3.org/1999/xlink" x="0px" y="0px"
	 viewBox="0 0 37 37" style="enable-background:new 0 0 37 37;" xml:space="preserve">
<style type="text/css">
	.st0{fill:#0060A1;stroke:#0060A1;stroke-width:2;}
	.st1{fill:none;stroke:#FFFFFF;stroke-width:1.5;stroke-linecap:round;stroke-linejoin:round;}
</style>
<title>69E01CD3-DC14-4EDB-8608-DC47D78C7A56</title>
<desc>Created with sketchtool.</desc>
<g id="Style-Guide-and-UI-KIT">
	<g id="Page_x2F_All-Assets" transform="translate(-1121.000000, -647.000000)">
		<g id="Icons---All" transform="translate(71.000000, 647.000000)">
			<g id="Page-symbols_x2F_Page_x2F_Template_x2F_Icon" transform="translate(1050.000000, 5.000000)">
				<g id="BMS-UI-Element_x2F_Icon_x2F_Close---Blue" transform="translate(0.500000, 0.061715)">
					<path id="Oval" class="st0" d="M18,26.2c7,0,12.8-5.7,12.8-12.8c0-3.8-1.6-7.2-4.3-9.5c-2.3-2-5.2-3.2-8.5-3.2
						c-7,0-12.8,5.7-12.8,12.8S11,26.2,18,26.2z"/>
					<path id="Rectangle" class="st1" d="M14.1,9.8L14.1,9.8c0.2-0.2,0.6-0.2,0.8,0l7,7c0.2,0.2,0.2,0.6,0,0.8v0
						c-0.2,0.2-0.6,0.2-0.8,0l-7-7C13.9,10.4,13.9,10.1,14.1,9.8z"/>
					<path id="Rectangle_1_" class="st1" d="M21.9,9.8L21.9,9.8c0.2,0.2,0.2,0.6,0,0.8l-7,7c-0.2,0.2-0.6,0.2-0.8,0l0,0
						c-0.2-0.2-0.2-0.6,0-0.8l7-7C21.3,9.6,21.7,9.6,21.9,9.8z"/>
				</g>
			</g>
		</g>
	</g>
</g>
</svg>
