<?xml version="1.0" encoding="utf-8"?>
<!-- Generator: Adobe Illustrator 19.2.1, SVG Export Plug-In . SVG Version: 6.00 Build 0)  -->
<svg version="1.1" id="Layer_1" xmlns="http://www.w3.org/2000/svg" xmlns:xlink="http://www.w3.org/1999/xlink" x="0px" y="0px"
	 viewBox="0 0 37 37" style="enable-background:new 0 0 37 37;" xml:space="preserve">
<style type="text/css">
	.st0{fill:#0061A2;stroke:#0061A2;stroke-width:0.2;}
	.st1{fill:none;stroke:#0061A2;stroke-width:2;}
</style>
<title>9ECB184C-C2F5-40E9-B77D-B6FADF8BC89C</title>
<desc>Created with sketchtool.</desc>
<g id="Style-Guide-and-UI-KIT">
	<g id="Page_x2F_All-Assets" transform="translate(-772.000000, -648.000000)">
		<g id="Icons---All" transform="translate(71.000000, 647.000000)">
			<g id="Page-symbols_x2F_Page_x2F_Template_x2F_Icon" transform="translate(701.000000, 5.000000)">
				<g id="BMS-UI-Element_x2F_Icon_x2F_reference" transform="translate(0.500000, 0.061715)">
					<g id="Group" transform="translate(5.000000, 8.000000)">
						<path id="Shape" class="st0" d="M12.3,10.9h-7c-0.4,0-0.7-0.3-0.7-0.7V1.6c0-0.2,0.1-0.3,0.2-0.5C4.9,1,5.1,0.9,5.2,0.9h4.9
							l0,0c0.8,0,1.5,0.3,2.1,0.8C12.7,2.2,13,2.9,13,3.6v6.7C13,10.7,12.7,10.9,12.3,10.9z M5.2,1.5c0,0-0.1,0-0.1,0
							c0,0,0,0.1,0,0.1v8.7c0,0.1,0.1,0.1,0.2,0.1h7c0.1,0,0.2-0.1,0.2-0.1V3.6c0-0.6-0.2-1.1-0.7-1.5c-0.4-0.4-1-0.6-1.7-0.6
							C8.4,1.5,6.2,1.5,5.2,1.5L5.2,1.5z"/>
						<path id="Shape_1_" class="st0" d="M20.6,10.9h-7.1c-0.4,0-0.7-0.3-0.7-0.7V3.6c0-0.7,0.3-1.4,0.9-1.9
							c0.5-0.5,1.3-0.8,2.1-0.8l0,0h4.9c0.2,0,0.4,0.1,0.5,0.2c0.1,0.1,0.2,0.3,0.2,0.5v8.7C21.4,10.6,21,10.9,20.6,10.9z M15.7,1.5
							c-0.6,0-1.2,0.2-1.7,0.6S13.3,3,13.3,3.6v6.7c0,0.1,0.1,0.1,0.2,0.1h7.1c0.1,0,0.2-0.1,0.2-0.1V1.6c0,0,0-0.1,0-0.1
							c0,0-0.1,0-0.1,0l0,0H15.7L15.7,1.5z"/>
						<path id="Shape_2_" class="st0" d="M13.2,13.7h-0.6c-0.5,0-0.9-0.4-0.9-0.9v0c0-0.2-0.2-0.3-0.3-0.3H4.9
							c-0.2,0-0.3-0.1-0.3-0.3s0.1-0.3,0.3-0.3h6.5c0.5,0,0.9,0.4,0.9,0.9v0c0,0.2,0.2,0.3,0.3,0.3h0.6c0.2,0,0.3-0.1,0.3-0.3
							c0-0.5,0.4-0.9,0.9-0.9h6.7c0.2,0,0.3,0.1,0.3,0.3c0,0.1-0.1,0.3-0.3,0.3h-6.7c-0.2,0-0.3,0.1-0.3,0.3
							C14.1,13.3,13.7,13.7,13.2,13.7z"/>
						<path id="Shape_3_" class="st0" d="M11.4,3.9H6.6c-0.2,0-0.3-0.1-0.3-0.3s0.1-0.3,0.3-0.3h4.8c0.2,0,0.3,0.1,0.3,0.3
							S11.6,3.9,11.4,3.9z"/>
						<path id="Shape_4_" class="st0" d="M11.4,6.2H6.6c-0.2,0-0.3-0.1-0.3-0.3c0-0.1,0.1-0.3,0.3-0.3h4.8c0.2,0,0.3,0.1,0.3,0.3
							C11.7,6.1,11.6,6.2,11.4,6.2z"/>
						<path id="Shape_5_" class="st0" d="M11.4,8.5H6.6c-0.2,0-0.3-0.1-0.3-0.3S6.4,8,6.6,8h4.8c0.2,0,0.3,0.1,0.3,0.3
							S11.6,8.5,11.4,8.5z"/>
						<path id="Shape_6_" class="st0" d="M19.6,3.9h-4.8c-0.2,0-0.3-0.1-0.3-0.3s0.1-0.3,0.3-0.3h4.8c0.2,0,0.3,0.1,0.3,0.3
							S19.7,3.9,19.6,3.9z"/>
						<path id="Shape_7_" class="st0" d="M19.6,6.2h-4.8c-0.2,0-0.3-0.1-0.3-0.3c0-0.1,0.1-0.3,0.3-0.3h4.8c0.2,0,0.3,0.1,0.3,0.3
							C19.8,6.1,19.7,6.2,19.6,6.2z"/>
						<path id="Shape_8_" class="st0" d="M19.6,8.5h-4.8c-0.2,0-0.3-0.1-0.3-0.3S14.6,8,14.7,8h4.8c0.2,0,0.3,0.1,0.3,0.3
							S19.7,8.5,19.6,8.5z"/>
					</g>
					<circle id="Oval" class="st1" cx="18" cy="14.4" r="12.8"/>
				</g>
			</g>
		</g>
	</g>
</g>
</svg>
