<?xml version="1.0" encoding="utf-8"?>
<!-- Generator: Adobe Illustrator 19.2.1, SVG Export Plug-In . SVG Version: 6.00 Build 0)  -->
<svg version="1.1" id="Layer_1" xmlns="http://www.w3.org/2000/svg" xmlns:xlink="http://www.w3.org/1999/xlink" x="0px" y="0px"
	 viewBox="0 0 37 37" style="enable-background:new 0 0 37 37;" xml:space="preserve">
<style type="text/css">
	.st0{fill:none;stroke:#0060A1;stroke-width:2;}
	.st1{fill:#0060A1;}
</style>
<title>017716DC-85D8-46A2-AB4F-A6E079942178</title>
<desc>Created with sketchtool.</desc>
<g id="Style-Guide-and-UI-KIT">
	<g id="Page_x2F_All-Assets" transform="translate(-949.000000, -647.000000)">
		<g id="Icons---All" transform="translate(71.000000, 647.000000)">
			<g id="Page-symbols_x2F_Page_x2F_Template_x2F_Icon" transform="translate(878.000000, 5.000000)">
				<g id="BMS-UI-Element_x2F_Icon_x2F_safetybutton-Active" transform="translate(0.500000, 0.061715)">
					<path id="Stroke" class="st0" d="M31,13.4c0,7.2-5.8,13-13,13c-7.2,0-13-5.8-13-13c0-7.2,5.8-13,13-13C25.2,0.5,31,6.3,31,13.4
						z"/>
					<path id="Fill" class="st1" d="M14.6,14.8h0.5c0.3,1.3,0.7,2.2,1.3,2.8c0.6,0.6,1.3,0.9,2.1,0.9c0.8,0,1.3-0.2,1.6-0.6
						c0.3-0.4,0.5-0.8,0.5-1.2c0-0.5-0.2-0.9-0.5-1.2c-0.2-0.2-0.7-0.5-1.3-0.8L17.6,14c-1.1-0.5-1.8-1.1-2.3-1.6
						c-0.4-0.5-0.7-1.2-0.7-2c0-0.8,0.3-1.6,0.9-2.3C16.1,7.4,17,7,18.2,7c0.6,0,1.2,0.1,1.8,0.3c0.6,0.2,0.9,0.3,1,0.3
						c0.2,0,0.3-0.1,0.4-0.2c0.1-0.1,0.1-0.2,0.2-0.4h0.5v3.7h-0.5c-0.2-0.9-0.6-1.6-1.2-2.2c-0.6-0.6-1.2-0.9-2-0.9
						c-0.6,0-1,0.2-1.3,0.5c-0.3,0.3-0.5,0.7-0.5,1.1c0,0.5,0.2,0.9,0.5,1.2c0.3,0.3,1,0.7,2,1.2l1.3,0.6c0.6,0.3,1,0.6,1.3,0.9
						c0.6,0.6,0.9,1.4,0.9,2.3c0,0.9-0.3,1.7-1,2.4c-0.7,0.8-1.7,1.1-3.2,1.1c-0.3,0-0.7,0-1-0.1c-0.3-0.1-0.7-0.2-1-0.3L16,18.5
						c-0.1,0-0.1,0-0.2-0.1c-0.1,0-0.1,0-0.2,0c-0.2,0-0.3,0.1-0.4,0.2c-0.1,0.1-0.1,0.2-0.2,0.4h-0.5V14.8z"/>
				</g>
			</g>
		</g>
	</g>
</g>
</svg>
