<?xml version="1.0" encoding="utf-8"?>
<!-- Generator: Adobe Illustrator 19.2.1, SVG Export Plug-In . SVG Version: 6.00 Build 0)  -->
<svg version="1.1" id="Layer_1" xmlns="http://www.w3.org/2000/svg" xmlns:xlink="http://www.w3.org/1999/xlink" x="0px" y="0px"
	 viewBox="0 0 37 37" style="enable-background:new 0 0 37 37;" xml:space="preserve">
<style type="text/css">
	.st0{fill:#0060A1;stroke:#0060A6;stroke-width:0.25;}
</style>
<title>37803DAE-AA3A-4C36-A105-61BEAB95F785</title>
<desc>Created with sketchtool.</desc>
<g id="Style-Guide-and-UI-KIT">
	<g id="Page_x2F_All-Assets" transform="translate(-247.000000, -648.000000)">
		<g id="Icons---All" transform="translate(71.000000, 647.000000)">
			<g id="Page-symbols_x2F_Page_x2F_Template_x2F_Icon" transform="translate(175.000000, 5.000000)">
				<g id="BMS-UI-Element_x2F_Icon_x2F_Home-Blue" transform="translate(0.500000, 0.061715)">
					<path id="Shape" class="st0" d="M15.3,26.4L15.3,26.4H9.4c-0.7,0-1.3-0.6-1.3-1.2v-9.1c0-0.3,0.2-0.7,0.4-0.9l9.6-8.6
						c0.5-0.5,1.2-0.5,1.7,0l9.6,8.6c0.3,0.2,0.4,0.6,0.4,0.9v9.1c0,0.7-0.6,1.2-1.3,1.2h-6.1c-0.7,0-1.3-0.6-1.3-1.2v-6
						c0-0.2-0.1-0.3-0.3-0.3h-4.2c-0.2,0-0.3,0.1-0.3,0.3v6c0,0.3-0.1,0.6-0.4,0.9C15.9,26.3,15.6,26.4,15.3,26.4z M19,7.2
						c-0.1,0-0.1,0-0.2,0.1l-9.6,8.6c0,0-0.1,0.1-0.1,0.2v9.1c0,0.2,0.1,0.3,0.2,0.3l5.9,0l0,0c0.1,0,0.2,0,0.2-0.1
						c0,0,0.1-0.1,0.1-0.2v-6c0-0.7,0.6-1.2,1.3-1.2h4.2c0.7,0,1.3,0.6,1.3,1.2v6c0,0.2,0.1,0.3,0.3,0.3h6c0.2,0,0.3-0.1,0.3-0.3
						v-9.2c0-0.1,0-0.2-0.1-0.2l-9.6-8.6C19.1,7.2,19,7.2,19,7.2z"/>
					<path id="Shape_1_" class="st0" d="M31.6,14.4c-0.1,0-0.2,0-0.3-0.1L19.2,3.5c-0.1-0.1-0.2-0.1-0.3,0L6.7,14.2
						c-0.2,0.2-0.5,0.2-0.7,0c-0.2-0.2-0.2-0.5,0-0.7L18.2,2.8c0.5-0.4,1.2-0.4,1.7,0L32,13.6c0.2,0.2,0.2,0.5,0,0.7
						C31.9,14.4,31.8,14.4,31.6,14.4z"/>
				</g>
			</g>
		</g>
	</g>
</g>
</svg>
