<?xml version="1.0" encoding="utf-8"?>
<!-- Generator: Adobe Illustrator 19.2.1, SVG Export Plug-In . SVG Version: 6.00 Build 0)  -->
<svg version="1.1" id="Layer_1" xmlns="http://www.w3.org/2000/svg" xmlns:xlink="http://www.w3.org/1999/xlink" x="0px" y="0px"
	 viewBox="0 0 37 37" style="enable-background:new 0 0 37 37;" xml:space="preserve">
<style type="text/css">
	.st0{fill:none;stroke:#0061A2;stroke-width:2;}
	.st1{fill:#0061A2;}
</style>
<title>FCDE30C1-EC6E-4F6A-AEF1-69CD2042818C</title>
<desc>Created with sketchtool.</desc>
<g id="Style-Guide-and-UI-KIT">
	<g id="Page_x2F_All-Assets" transform="translate(-596.000000, -648.000000)">
		<g id="Icons---All" transform="translate(71.000000, 647.000000)">
			<g id="Page-symbols_x2F_Page_x2F_Template_x2F_Icon" transform="translate(525.000000, 5.000000)">
				<g id="BMS-UI-Element_x2F_Icon_x2F_Info" transform="translate(0.500000, 0.061715)">
					<circle id="Oval" class="st0" cx="18" cy="14.4" r="12.8"/>
					<path id="Shape" class="st1" d="M15.9,18.4c0-0.2,0.1-0.5,0.2-0.7l1-4.3c0,0,0-0.1,0-0.2v-0.1c0-0.2-0.1-0.4-0.2-0.5
						c-0.1,0-0.4-0.1-0.8-0.1V12c0.3,0,0.8-0.1,1.4-0.2c0.6-0.1,1-0.1,1.3-0.2l0.7-0.2l-1.3,5.4c-0.1,0.5-0.2,0.8-0.2,1
						c-0.1,0.5-0.1,0.7-0.1,0.9c0,0.1,0,0.2,0.1,0.2c0,0,0.1,0,0.2,0c0.2,0,0.4-0.2,0.6-0.5c0.3-0.3,0.5-0.7,0.7-1l0.4,0.3
						c-0.6,0.9-1,1.5-1.2,1.9c-0.5,0.5-1,0.8-1.5,0.8c-0.3,0-0.6-0.1-0.8-0.3c-0.3-0.2-0.4-0.5-0.4-1C15.8,18.9,15.8,18.7,15.9,18.4
						z M19.5,7.7c0.2,0.2,0.3,0.4,0.3,0.7c0,0.3-0.1,0.5-0.3,0.7c-0.2,0.2-0.4,0.3-0.7,0.3S18.2,9.3,18,9.1
						c-0.2-0.2-0.3-0.4-0.3-0.7c0-0.3,0.1-0.5,0.3-0.7c0.2-0.2,0.4-0.3,0.7-0.3S19.3,7.5,19.5,7.7z"/>
				</g>
			</g>
		</g>
	</g>
</g>
</svg>
