<?xml version="1.0" encoding="utf-8"?>
<!-- Generator: Adobe Illustrator 19.2.1, SVG Export Plug-In . SVG Version: 6.00 Build 0)  -->
<svg version="1.1" id="Layer_1" xmlns="http://www.w3.org/2000/svg" xmlns:xlink="http://www.w3.org/1999/xlink" x="0px" y="0px"
	 viewBox="0 0 37 37" style="enable-background:new 0 0 37 37;" xml:space="preserve">
<style type="text/css">
	.st0{fill:#0060A1;stroke:#0060A6;stroke-width:0.2;}
	.st1{fill:none;stroke:#0060A1;stroke-width:1.2;}
</style>
<title>82F28B20-D552-408D-9265-93D3E07A0B92</title>
<desc>Created with sketchtool.</desc>
<g id="Style-Guide-and-UI-KIT">
	<g id="Page_x2F_All-Assets" transform="translate(-421.000000, -648.000000)">
		<g id="Icons---All" transform="translate(71.000000, 647.000000)">
			<g id="Page-symbols_x2F_Page_x2F_Template_x2F_Icon" transform="translate(349.000000, 5.000000)">
				<g id="BMS-UI-Element_x2F_Icon_x2F_table-Blue" transform="translate(0.500000, 0.061715)">
					<path id="Combined-Shape" class="st0" d="M15.4,10.8h7.4V7.3c0-0.2,0.2-0.4,0.5-0.4c0.3,0,0.5,0.2,0.5,0.4v3.6h5.9
						c0.2,0,0.4,0.2,0.4,0.5c0,0.3-0.2,0.5-0.4,0.5h-5.9v10.1c0,0.2-0.2,0.4-0.5,0.4s-0.5-0.2-0.5-0.4V11.8h-7.4v10.1
						c0,0.2-0.2,0.4-0.5,0.4c-0.3,0-0.5-0.2-0.5-0.4V11.8H8.5c-0.2,0-0.4-0.2-0.4-0.5c0-0.3,0.2-0.5,0.4-0.5h5.9V7.3
						c0-0.2,0.2-0.4,0.5-0.4c0.3,0,0.5,0.2,0.5,0.4V10.8z M12.8,16.1H8.5c-0.2,0-0.4-0.2-0.4-0.5c0-0.3,0.2-0.5,0.4-0.5h4.3
						c0.2,0,0.4,0.2,0.4,0.5C13.2,15.8,13,16.1,12.8,16.1z M12.8,20.3H8.5c-0.2,0-0.4-0.2-0.4-0.5c0-0.3,0.2-0.5,0.4-0.5h4.3
						c0.2,0,0.4,0.2,0.4,0.5C13.2,20.1,13,20.3,12.8,20.3z M21.3,16.1H17c-0.2,0-0.4-0.2-0.4-0.5c0-0.3,0.2-0.5,0.4-0.5h4.3
						c0.2,0,0.4,0.2,0.4,0.5C21.7,15.8,21.5,16.1,21.3,16.1z M21.3,20.3H17c-0.2,0-0.4-0.2-0.4-0.5c0-0.3,0.2-0.5,0.4-0.5h4.3
						c0.2,0,0.4,0.2,0.4,0.5C21.7,20.1,21.5,20.3,21.3,20.3z M29.6,16.1h-4.3c-0.2,0-0.4-0.2-0.4-0.5c0-0.3,0.2-0.5,0.4-0.5h4.3
						c0.2,0,0.4,0.2,0.4,0.5C30,15.8,29.8,16.1,29.6,16.1z M29.6,20.3h-4.3c-0.2,0-0.4-0.2-0.4-0.5c0-0.3,0.2-0.5,0.4-0.5h4.3
						c0.2,0,0.4,0.2,0.4,0.5C30,20.1,29.8,20.3,29.6,20.3z"/>
					<path id="Shape" class="st1" d="M29.6,24.5H8.4c-1.1,0-1.9-0.8-1.9-1.9V6.3c0-1,0.8-1.9,1.9-1.9h21.3c1.1,0,1.9,0.8,1.9,1.9
						v16.2C31.5,23.6,30.7,24.5,29.6,24.5z"/>
				</g>
			</g>
		</g>
	</g>
</g>
</svg>
